<svg width="48" height="35" viewBox="0 0 48 35" fill="none" xmlns="http://www.w3.org/2000/svg">
<path d="M0.56 32.28V1.88L7.4 1.28L11.4 3.28V24.6L17 24.12L21 26.12V32.88L4.56 34.28L0.56 32.28ZM7 25.4V1.72L0.96 2.24V31.88L16.6 30.52V24.56L7 25.4ZM28.8025 31.88L20.6025 2.16L28.0825 1.52L32.0825 3.52L34.0025 11.24L36.4025 1.16L43.6425 0.519998L47.6425 2.52L39.6025 33.28L32.8025 33.88L28.8025 31.88ZM36.7225 1.56L33.2425 16.36C33.0558 17.24 32.8958 18.12 32.7625 19C32.6292 19.8533 32.5358 20.56 32.4825 21.12C32.4292 21.68 32.4025 21.96 32.4025 21.96H32.2825C32.2825 21.96 32.2425 21.6933 32.1625 21.16C32.1092 20.6 32.0158 19.9067 31.8825 19.08C31.7492 18.2533 31.5758 17.4 31.3625 16.52L27.7625 1.96L21.1225 2.52L29.0825 31.48L35.2425 30.92L43.0825 0.999999L36.7225 1.56Z" fill="white"/>
</svg>
